<?xml version="1.0" encoding="utf-8"?>
<!-- Generator: Adobe Illustrator 19.2.1, SVG Export Plug-In . SVG Version: 6.00 Build 0)  -->
<!DOCTYPE svg PUBLIC "-//W3C//DTD SVG 1.1//EN" "http://www.w3.org/Graphics/SVG/1.1/DTD/svg11.dtd">
<svg version="1.1" id="Layer_1" xmlns="http://www.w3.org/2000/svg" xmlns:xlink="http://www.w3.org/1999/xlink" x="0px" y="0px"
	 viewBox="0 0 16 16" enable-background="new 0 0 16 16" xml:space="preserve">
<path d="M11,3.3c-2-0.1-4-0.1-6,0C2.5,3.4-0.5,5.6,0.1,8.5c0.1,0.7,0.2,1.1,0.3,1.9c0.1,0.9,0.2,1.4,0.4,2.3c0.2,1,1.5,1.3,2.1,0.4
	c0.6-1.1,1-1.6,1.7-2.6c0.2-0.3,0.6-0.5,1-0.6c1.7-0.1,3.4-0.1,5.1,0c0.4,0,0.8,0.2,1,0.6c0.7,1,1.1,1.6,1.7,2.6
	c0.5,0.9,1.9,0.7,2.1-0.4c0.1-0.9,0.2-1.4,0.4-2.3c0.1-0.7,0.2-1.1,0.3-1.9C16.4,5.6,13.7,3.3,11,3.3z M6,7.3H5.4v0.6
	c0,0.4-0.3,0.6-0.6,0.6S4.1,8.3,4.1,7.9V7.3H3.4C3.1,7.3,2.8,7,2.8,6.6C2.8,6.3,3.1,6,3.4,6h0.6V5.4c0-0.4,0.3-0.6,0.6-0.6
	S5.4,5,5.4,5.4V6H6c0.4,0,0.6,0.3,0.6,0.6C6.6,7,6.3,7.3,6,7.3z M10.6,7.3c-0.4,0-0.6-0.3-0.6-0.6c0-0.4,0.3-0.6,0.6-0.6
	c0.4,0,0.6,0.3,0.6,0.6C11.2,7,10.9,7.3,10.6,7.3z M12.5,7.3c-0.4,0-0.6-0.3-0.6-0.6c0-0.4,0.3-0.6,0.6-0.6c0.4,0,0.6,0.3,0.6,0.6
	C13.1,7,12.8,7.3,12.5,7.3z"/>
</svg>
